<svg width="500" height="450" viewBox="20 -20 450 450" version="1.1" xmlns="http://www.w3.org/2000/svg" xmlns:xlink="http://www.w3.org/1999/xlink" style="margin-top:0px;"><g class="zoom_append_g" transform="translate(0,0) scale(1)"><g><defs><path id="path1" d="M20,200 L20,0"></path></defs><g class="group" transform="matrix(1 0 0 1 50 45)"><circle cx="121.429" cy="121.429" r="121.429" fill="#F8766D" fill-opacity="0.5"></circle><circle cx="242.857" cy="121.429" r="121.429" fill="#00BA38" fill-opacity="0.5"></circle><circle cx="183.537" cy="225.025" r="121.429" fill="#619CFF" fill-opacity="0.5"></circle></g><g class="stroke" transform="matrix(1 0 0 1 50 45)"><circle cx="121.429" cy="121.429" r="121.429" opacity="1" stroke="#666666" stroke-width="2" fill-opacity="0"></circle><circle cx="242.857" cy="121.429" r="121.429" opacity="1" stroke="#666666" stroke-width="2" fill-opacity="0"></circle><circle cx="183.537" cy="225.025" r="121.429" opacity="1" stroke="#666666" stroke-width="2" fill-opacity="0"></circle></g><g class="venn_label"><text transform="matrix(1 0 0 1 232 331)" font-size="18" font-family="Arial" text-anchor="middle">70</text><text transform="matrix(1 0 0 1 350 143)" font-size="18" font-family="Arial" text-anchor="middle">37</text><text transform="matrix(1 0 0 1 310 255)" font-size="18" font-family="Arial" text-anchor="middle">18</text><text transform="matrix(1 0 0 1 115 143)" font-size="18" font-family="Arial" text-anchor="middle">174</text><text transform="matrix(1 0 0 1 155 255)" font-size="18" font-family="Arial" text-anchor="middle">131</text><text transform="matrix(1 0 0 1 233 122)" font-size="18" font-family="Arial" text-anchor="middle">26</text><text transform="matrix(1 0 0 1 233 202)" font-size="18" font-family="Arial" text-anchor="middle">225</text></g><g class="venn_part"><path opacity="0" fill="#fff" stroke="#666666" stroke-dasharray="50,10" class="" d="M112.417,271.359c0-44.371,23.804-83.178,59.334-104.363c0.277-44.623,24.614-83.538,60.702-104.413 c-17.861-10.333-38.597-16.249-60.715-16.249c-67.063,0-121.429,54.365-121.429,121.429c0,45.529,25.062,85.198,62.138,105.984 C112.431,272.952,112.417,272.157,112.417,271.359z" areaindex="100" stroke-width="2" style="opacity: 0;"></path><path opacity="0" fill="#fff" stroke="#666666" stroke-dasharray="50,10" class="" d="M233.607,150.056c21.53,0,41.748,5.611,59.281,15.438c-0.851-43.94-25.025-82.166-60.674-102.787 c-36.088,20.875-60.425,59.79-60.702,104.413C189.682,156.286,210.916,150.056,233.607,150.056z" areaindex="110" stroke-width="2" style="opacity: 0;"></path><path opacity="0" fill="#fff" stroke="#666666" stroke-dasharray="50,10" class="" d="M292.167,46.334c-22.119,0-42.854,5.916-60.715,16.249c35.647,20.621,59.823,58.847,60.674,102.787 c37.083,20.785,62.149,60.457,62.149,105.989c0,0.256-0.01,0.51-0.01,0.765c35.527-21.186,59.33-59.991,59.33-104.361 C413.596,100.699,359.23,46.334,292.167,46.334z" areaindex="010" stroke-width="2" style="opacity: 0;"></path><path opacity="0" fill="#fff" stroke="#666666" stroke-dasharray="50,10" class="" d="M171.79,166.885c0-0.256,0.008-0.509,0.01-0.765c-35.528,21.187-59.331,59.991-59.331,104.361 c0,0.798,0.015,1.593,0.03,2.388c17.536,9.831,37.757,15.444,59.291,15.444c22.118,0,42.854-5.916,60.715-16.249 C196.209,251.069,171.79,211.83,171.79,166.885z" areaindex="101" stroke-width="2" style="opacity: 0;"></path><path opacity="0" fill="#fff" stroke="#666666" stroke-dasharray="50,10" class="" d="M171.5,167.12c-0.002,0.256-0.014,0.51-0.014,0.767c0,44.945,24.42,84.185,60.715,105.18 c36.295-20.995,60.715-60.234,60.715-105.18c0-0.801-0.025-1.596-0.041-2.393c-17.533-9.827-37.75-15.438-59.281-15.438 C210.902,150.056,189.668,156.286,171.5,167.12z" areaindex="111" stroke-width="2" style="opacity: 0;"></path><path opacity="0" fill="#fff" stroke="#666666" stroke-dasharray="50,10" class="" d="M292.203,165.31c0.016,0.795,0.03,1.589,0.03,2.387c0,44.945-24.42,84.185-60.715,105.18 c17.86,10.333,38.597,16.249,60.715,16.249c22.693,0,43.927-6.231,62.097-17.067c0.002-0.255,0.01-0.509,0.01-0.765 C354.34,225.765,329.279,186.096,292.203,165.31z" areaindex="011" stroke-width="2" style="opacity: 0;"></path><path opacity="0" fill="#fff" stroke="#666666" stroke-dasharray="50,10" class="" d="M292.83,288.191c-22.118,0-42.854-5.916-60.715-16.249c-17.861,10.333-38.597,16.249-60.715,16.249 c-21.534,0-41.754-5.612-59.29-15.444c1.273,65.959,55.134,119.042,121.397,119.042c66.809,0,121.008-53.955,121.42-120.665 C336.756,281.96,315.521,288.191,292.83,288.191z" areaindex="001" stroke-width="2" style="opacity: 0;"></path></g><g class="venn_setnamepos"><text x="150" y="36" text-anchor="middle" font-size="18" font-family="Arial">W2_CLT</text><text x="320" y="36" text-anchor="middle" font-size="18" font-family="Arial">W2_DSS</text><text x="245" y="415" transform="" text-anchor="middle" font-size="18" font-family="Arial">W2_LbGP</text></g><text x="0" y="0" font-size="18" font-family="Arial" transform="translate(220,10)" text-anchor="middle" font-weight="bold"></text></g></g></svg>