<svg width="921" height="1080" style="margin-top:0px;" version="1.1" xmlns="http://www.w3.org/2000/svg" xmlns:xlink="http://www.w3.org/1999/xlink"><g width="920" height="1080" class="zoom_append_g" transform="translate(0,0) scale(1)" data-zoom-num="1" data-x="0" data-y="0"><rect x="0" y="0" class="svg-zoom-rect" width="899" height="1079" fill="none" stroke="none"></rect><g class="left-draw"><rect x="10" y="10" width="576.5" height="1060" stroke="#AAA" stroke-width="0.5" fill="none"></rect><g><rect x="338" y="64" width="229.5" height="24" stroke="none" fill="#E6E6E6"></rect><rect x="338" y="112" width="229.5" height="24" stroke="none" fill="#E6E6E6"></rect><rect x="338" y="160" width="229.5" height="24" stroke="none" fill="#E6E6E6"></rect><rect x="338" y="208" width="229.5" height="24" stroke="none" fill="#E6E6E6"></rect><rect x="338" y="256" width="229.5" height="24" stroke="none" fill="#E6E6E6"></rect><rect x="338" y="304" width="229.5" height="24" stroke="none" fill="#E6E6E6"></rect><rect x="338" y="352" width="229.5" height="24" stroke="none" fill="#E6E6E6"></rect><rect x="338" y="400" width="229.5" height="24" stroke="none" fill="#E6E6E6"></rect><rect x="338" y="448" width="229.5" height="24" stroke="none" fill="#E6E6E6"></rect><rect x="338" y="496" width="229.5" height="24" stroke="none" fill="#E6E6E6"></rect><rect x="338" y="544" width="229.5" height="24" stroke="none" fill="#E6E6E6"></rect><rect x="338" y="592" width="229.5" height="24" stroke="none" fill="#E6E6E6"></rect><rect x="338" y="640" width="229.5" height="24" stroke="none" fill="#E6E6E6"></rect><rect x="338" y="688" width="229.5" height="24" stroke="none" fill="#E6E6E6"></rect><rect x="338" y="736" width="229.5" height="24" stroke="none" fill="#E6E6E6"></rect><rect x="338" y="784" width="229.5" height="24" stroke="none" fill="#E6E6E6"></rect><rect x="338" y="832" width="229.5" height="24" stroke="none" fill="#E6E6E6"></rect><rect x="338" y="880" width="229.5" height="24" stroke="none" fill="#E6E6E6"></rect><rect x="338" y="928" width="229.5" height="24" stroke="none" fill="#E6E6E6"></rect><rect x="338" y="976" width="229.5" height="24" stroke="none" fill="#E6E6E6"></rect></g><g transform="translate(0,1000)" class="axis_g" fill="none" font-size="10" font-family="sans-serif" text-anchor="middle"><path class="domain" stroke="currentColor" d="M331,0L566.5,0"></path><g class="tick" opacity="1" transform="translate(337.5,0)"><text fill="currentColor" y="9" dy="0.71em" font-family="Arial" font-size="12">0</text></g><g class="tick" opacity="1" transform="translate(422.4690803679421,0)"><line stroke="currentColor" y2="6"></line><text fill="currentColor" y="9" dy="0.71em" font-family="Arial" font-size="12">20,000</text></g><g class="tick" opacity="1" transform="translate(507.43816073588425,0)"><line stroke="currentColor" y2="6"></line><text fill="currentColor" y="9" dy="0.71em" font-family="Arial" font-size="12">40,000</text></g></g><g transform="translate(337,0)" class="axis_g" fill="none" font-size="10" font-family="sans-serif" text-anchor="end"><path class="domain" stroke="currentColor" d="M0,40L0,1006"></path><g class="tick" opacity="1" transform="translate(0,52.5)"><line stroke="currentColor" x2="-6"></line><text fill="currentColor" x="-9" dy="0.32em" font-family="Arial" font-size="12">Other glycan degradation </text></g><g class="tick" opacity="1" transform="translate(0,76.5)"><line stroke="currentColor" x2="-6"></line><text fill="currentColor" x="-9" dy="0.32em" font-family="Arial" font-size="12">Biotin metabolism </text></g><g class="tick" opacity="1" transform="translate(0,100.5)"><line stroke="currentColor" x2="-6"></line><text fill="currentColor" x="-9" dy="0.32em" font-family="Arial" font-size="12">Citrate cycle (TCA cycle) </text></g><g class="tick" opacity="1" transform="translate(0,124.5)"><line stroke="currentColor" x2="-6"></line><text fill="currentColor" x="-9" dy="0.32em" font-family="Arial" font-size="12">Lipoic acid metabolism </text></g><g class="tick" opacity="1" transform="translate(0,148.5)"><line stroke="currentColor" x2="-6"></line><text fill="currentColor" x="-9" dy="0.32em" font-family="Arial" font-size="12">RNA polymerase </text></g><g class="tick" opacity="1" transform="translate(0,172.5)"><line stroke="currentColor" x2="-6"></line><text fill="currentColor" x="-9" dy="0.32em" font-family="Arial" font-size="12">Sulfur relay system </text></g><g class="tick" opacity="1" transform="translate(0,196.5)"><line stroke="currentColor" x2="-6"></line><text fill="currentColor" x="-9" dy="0.32em" font-family="Arial" font-size="12">Lipopolysaccharide biosynthesis </text></g><g class="tick" opacity="1" transform="translate(0,220.5)"><line stroke="currentColor" x2="-6"></line><text fill="currentColor" x="-9" dy="0.32em" font-family="Arial" font-size="12">Sulfur metabolism </text></g><g class="tick" opacity="1" transform="translate(0,244.5)"><line stroke="currentColor" x2="-6"></line><text fill="currentColor" x="-9" dy="0.32em" font-family="Arial" font-size="12">Glycosaminoglycan degradation </text></g><g class="tick" opacity="1" transform="translate(0,268.5)"><line stroke="currentColor" x2="-6"></line><text fill="currentColor" x="-9" dy="0.32em" font-family="Arial" font-size="12">Nitrogen metabolism </text></g><g class="tick" opacity="1" transform="translate(0,292.5)"><line stroke="currentColor" x2="-6"></line><text fill="currentColor" x="-9" dy="0.32em" font-family="Arial" font-size="12">Glyoxylate and dicarboxylate metabolism </text></g><g class="tick" opacity="1" transform="translate(0,316.5)"><line stroke="currentColor" x2="-6"></line><text fill="currentColor" x="-9" dy="0.32em" font-family="Arial" font-size="12">Ubiquinone and other terpenoid-quinone biosynthesis </text></g><g class="tick" opacity="1" transform="translate(0,340.5)"><line stroke="currentColor" x2="-6"></line><text fill="currentColor" x="-9" dy="0.32em" font-family="Arial" font-size="12">Nitrotoluene degradation </text></g><g class="tick" opacity="1" transform="translate(0,364.5)"><line stroke="currentColor" x2="-6"></line><text fill="currentColor" x="-9" dy="0.32em" font-family="Arial" font-size="12">Toluene degradation </text></g><g class="tick" opacity="1" transform="translate(0,388.5)"><line stroke="currentColor" x2="-6"></line><text fill="currentColor" x="-9" dy="0.32em" font-family="Arial" font-size="12">Phenylalanine metabolism </text></g><g class="tick" opacity="1" transform="translate(0,412.5)"><line stroke="currentColor" x2="-6"></line><text fill="currentColor" x="-9" dy="0.32em" font-family="Arial" font-size="12">Peroxisome </text></g><g class="tick" opacity="1" transform="translate(0,436.5)"><line stroke="currentColor" x2="-6"></line><text fill="currentColor" x="-9" dy="0.32em" font-family="Arial" font-size="12">Phosphonate and phosphinate metabolism </text></g><g class="tick" opacity="1" transform="translate(0,460.5)"><line stroke="currentColor" x2="-6"></line><text fill="currentColor" x="-9" dy="0.32em" font-family="Arial" font-size="12">Tryptophan metabolism </text></g><g class="tick" opacity="1" transform="translate(0,484.5)"><line stroke="currentColor" x2="-6"></line><text fill="currentColor" x="-9" dy="0.32em" font-family="Arial" font-size="12">Lysine degradation </text></g><g class="tick" opacity="1" transform="translate(0,508.5)"><line stroke="currentColor" x2="-6"></line><text fill="currentColor" x="-9" dy="0.32em" font-family="Arial" font-size="12">Limonene and pinene degradation </text></g><g class="tick" opacity="1" transform="translate(0,532.5)"><line stroke="currentColor" x2="-6"></line><text fill="currentColor" x="-9" dy="0.32em" font-family="Arial" font-size="12">Geraniol degradation </text></g><g class="tick" opacity="1" transform="translate(0,556.5)"><line stroke="currentColor" x2="-6"></line><text fill="currentColor" x="-9" dy="0.32em" font-family="Arial" font-size="12">D-Arginine and D-ornithine metabolism </text></g><g class="tick" opacity="1" transform="translate(0,580.5)"><line stroke="currentColor" x2="-6"></line><text fill="currentColor" x="-9" dy="0.32em" font-family="Arial" font-size="12">Ethylbenzene degradation </text></g><g class="tick" opacity="1" transform="translate(0,604.5)"><line stroke="currentColor" x2="-6"></line><text fill="currentColor" x="-9" dy="0.32em" font-family="Arial" font-size="12">Styrene degradation </text></g><g class="tick" opacity="1" transform="translate(0,628.5)"><line stroke="currentColor" x2="-6"></line><text fill="currentColor" x="-9" dy="0.32em" font-family="Arial" font-size="12">Steroid hormone biosynthesis </text></g><g class="tick" opacity="1" transform="translate(0,652.5)"><line stroke="currentColor" x2="-6"></line><text fill="currentColor" x="-9" dy="0.32em" font-family="Arial" font-size="12">RNA transport </text></g><g class="tick" opacity="1" transform="translate(0,676.5)"><line stroke="currentColor" x2="-6"></line><text fill="currentColor" x="-9" dy="0.32em" font-family="Arial" font-size="12">Protein digestion and absorption </text></g><g class="tick" opacity="1" transform="translate(0,700.5)"><line stroke="currentColor" x2="-6"></line><text fill="currentColor" x="-9" dy="0.32em" font-family="Arial" font-size="12">Caprolactam degradation </text></g><g class="tick" opacity="1" transform="translate(0,724.5)"><line stroke="currentColor" x2="-6"></line><text fill="currentColor" x="-9" dy="0.32em" font-family="Arial" font-size="12">Fluorobenzoate degradation </text></g><g class="tick" opacity="1" transform="translate(0,748.5)"><line stroke="currentColor" x2="-6"></line><text fill="currentColor" x="-9" dy="0.32em" font-family="Arial" font-size="12">Amoebiasis </text></g><g class="tick" opacity="1" transform="translate(0,772.5)"><line stroke="currentColor" x2="-6"></line><text fill="currentColor" x="-9" dy="0.32em" font-family="Arial" font-size="12">Non-homologous end-joining </text></g><g class="tick" opacity="1" transform="translate(0,796.5)"><line stroke="currentColor" x2="-6"></line><text fill="currentColor" x="-9" dy="0.32em" font-family="Arial" font-size="12">Steroid biosynthesis </text></g><g class="tick" opacity="1" transform="translate(0,820.5)"><line stroke="currentColor" x2="-6"></line><text fill="currentColor" x="-9" dy="0.32em" font-family="Arial" font-size="12">Carotenoid biosynthesis </text></g><g class="tick" opacity="1" transform="translate(0,844.5)"><line stroke="currentColor" x2="-6"></line><text fill="currentColor" x="-9" dy="0.32em" font-family="Arial" font-size="12">Meiosis - yeast </text></g><g class="tick" opacity="1" transform="translate(0,868.5)"><line stroke="currentColor" x2="-6"></line><text fill="currentColor" x="-9" dy="0.32em" font-family="Arial" font-size="12">Polycyclic aromatic hydrocarbon degradation </text></g><g class="tick" opacity="1" transform="translate(0,892.5)"><line stroke="currentColor" x2="-6"></line><text fill="currentColor" x="-9" dy="0.32em" font-family="Arial" font-size="12">Betalain biosynthesis </text></g><g class="tick" opacity="1" transform="translate(0,916.5)"><line stroke="currentColor" x2="-6"></line><text fill="currentColor" x="-9" dy="0.32em" font-family="Arial" font-size="12">Biosynthesis of type II polyketide backbone </text></g><g class="tick" opacity="1" transform="translate(0,940.5)"><line stroke="currentColor" x2="-6"></line><text fill="currentColor" x="-9" dy="0.32em" font-family="Arial" font-size="12">Sesquiterpenoid and triterpenoid biosynthesis </text></g><g class="tick" opacity="1" transform="translate(0,964.5)"><line stroke="currentColor" x2="-6"></line><text fill="currentColor" x="-9" dy="0.32em" font-family="Arial" font-size="12">Wnt signaling pathway </text></g><g class="tick" opacity="1" transform="translate(0,988.5)"><line stroke="currentColor" x2="-6"></line><text fill="currentColor" x="-9" dy="0.32em" font-family="Arial" font-size="12">Spliceosome </text></g></g><g transform="translate(0,40)"><rect x="337" y="4" width="208.63636363636363" class="rect-W2_DSS" height="8" fill="#F0B142" stroke="#333" stroke-width="0.5"></rect><rect x="337" y="28" width="140.19691785845157" class="rect-W2_DSS" height="8" fill="#F0B142" stroke="#333" stroke-width="0.5"></rect><rect x="337" y="52" width="92.90538599138847" class="rect-W2_DSS" height="8" fill="#F0B142" stroke="#333" stroke-width="0.5"></rect><rect x="337" y="76" width="97.6846005740324" class="rect-W2_DSS" height="8" fill="#F0B142" stroke="#333" stroke-width="0.5"></rect><rect x="337" y="100" width="73.31267071753553" class="rect-W2_DSS" height="8" fill="#F0B142" stroke="#333" stroke-width="0.5"></rect><rect x="337" y="124" width="61.58027824589334" class="rect-W2_DSS" height="8" fill="#F0B142" stroke="#333" stroke-width="0.5"></rect><rect x="337" y="148" width="84.27649796032347" class="rect-W2_DSS" height="8" fill="#F0B142" stroke="#333" stroke-width="0.5"></rect><rect x="337" y="172" width="77.73914628851429" class="rect-W2_DSS" height="8" fill="#F0B142" stroke="#333" stroke-width="0.5"></rect><rect x="337" y="196" width="90.3657297122216" class="rect-W2_DSS" height="8" fill="#F0B142" stroke="#333" stroke-width="0.5"></rect><rect x="337" y="220" width="62.55743392852787" class="rect-W2_DSS" height="8" fill="#F0B142" stroke="#333" stroke-width="0.5"></rect><rect x="337" y="244" width="65.04242789891242" class="rect-W2_DSS" height="8" fill="#F0B142" stroke="#333" stroke-width="0.5"></rect><rect x="337" y="268" width="37.848457220935416" class="rect-W2_DSS" height="8" fill="#F0B142" stroke="#333" stroke-width="0.5"></rect><rect x="337" y="292" width="42.070007621030754" class="rect-W2_DSS" height="8" fill="#F0B142" stroke="#333" stroke-width="0.5"></rect><rect x="337" y="316" width="34.87666066114883" class="rect-W2_DSS" height="8" fill="#F0B142" stroke="#333" stroke-width="0.5"></rect><rect x="337" y="340" width="30.14912675144933" class="rect-W2_DSS" height="8" fill="#F0B142" stroke="#333" stroke-width="0.5"></rect><rect x="337" y="364" width="21.418287223961215" class="rect-W2_DSS" height="8" fill="#F0B142" stroke="#333" stroke-width="0.5"></rect><rect x="337" y="388" width="20.44263521081899" class="rect-W2_DSS" height="8" fill="#F0B142" stroke="#333" stroke-width="0.5"></rect><rect x="337" y="412" width="15.552185410030631" class="rect-W2_DSS" height="8" fill="#F0B142" stroke="#333" stroke-width="0.5"></rect><rect x="337" y="436" width="16.472069241809606" class="rect-W2_DSS" height="8" fill="#F0B142" stroke="#333" stroke-width="0.5"></rect><rect x="337" y="460" width="9.356850501635165" class="rect-W2_DSS" height="8" fill="#F0B142" stroke="#333" stroke-width="0.5"></rect><rect x="337" y="484" width="12.433775976605375" class="rect-W2_DSS" height="8" fill="#F0B142" stroke="#333" stroke-width="0.5"></rect><rect x="337" y="508" width="21.38210087524436" class="rect-W2_DSS" height="8" fill="#F0B142" stroke="#333" stroke-width="0.5"></rect><rect x="337" y="532" width="9.426631429694908" class="rect-W2_DSS" height="8" fill="#F0B142" stroke="#333" stroke-width="0.5"></rect><rect x="337" y="556" width="8.809414826173565" class="rect-W2_DSS" height="8" fill="#F0B142" stroke="#333" stroke-width="0.5"></rect><rect x="337" y="580" width="9.498703265776498" class="rect-W2_DSS" height="8" fill="#F0B142" stroke="#333" stroke-width="0.5"></rect><rect x="337" y="604" width="4.391050332799239" class="rect-W2_DSS" height="8" fill="#F0B142" stroke="#333" stroke-width="0.5"></rect><rect x="337" y="628" width="5.491190828818844" class="rect-W2_DSS" height="8" fill="#F0B142" stroke="#333" stroke-width="0.5"></rect><rect x="337" y="652" width="3.125422710511259" class="rect-W2_DSS" height="8" fill="#F0B142" stroke="#333" stroke-width="0.5"></rect><rect x="337" y="676" width="1.6809379355439091" class="rect-W2_DSS" height="8" fill="#F0B142" stroke="#333" stroke-width="0.5"></rect><rect x="337" y="700" width="3.6717898997872567" class="rect-W2_DSS" height="8" fill="#F0B142" stroke="#333" stroke-width="0.5"></rect><rect x="337" y="724" width="1.9776525132611482" class="rect-W2_DSS" height="8" fill="#F0B142" stroke="#333" stroke-width="0.5"></rect><rect x="337" y="748" width="2.6070593475126884" class="rect-W2_DSS" height="8" fill="#F0B142" stroke="#333" stroke-width="0.5"></rect><rect x="337" y="772" width="1.4085166551719226" class="rect-W2_DSS" height="8" fill="#F0B142" stroke="#333" stroke-width="0.5"></rect><rect x="337" y="796" width="0.2647625215054177" class="rect-W2_DSS" height="8" fill="#F0B142" stroke="#333" stroke-width="0.5"></rect><rect x="337" y="820" width="0.1930022387185204" class="rect-W2_DSS" height="8" fill="#F0B142" stroke="#333" stroke-width="0.5"></rect><rect x="337" y="844" width="0.1049722180379149" class="rect-W2_DSS" height="8" fill="#F0B142" stroke="#333" stroke-width="0.5"></rect><rect x="337" y="868" width="0.028264044086029116" class="rect-W2_DSS" height="8" fill="#F0B142" stroke="#333" stroke-width="0.5"></rect><rect x="337" y="892" width="0.008567715603760462" class="rect-W2_DSS" height="8" fill="#F0B142" stroke="#333" stroke-width="0.5"></rect><rect x="337" y="916" width="0.0004902715937191715" class="rect-W2_DSS" height="8" fill="#F0B142" stroke="#333" stroke-width="0.5"></rect><rect x="337" y="940" width="0.00002357891980864224" class="rect-W2_DSS" height="8" fill="#F0B142" stroke="#333" stroke-width="0.5"></rect></g><g transform="translate(0,40)"><rect x="337" y="12" width="142.4164401695475" class="rect-W2_LbGP" height="8" fill="#62D6F6" stroke="#333" stroke-width="0.5"></rect><rect x="337" y="36" width="111.28456110537024" class="rect-W2_LbGP" height="8" fill="#62D6F6" stroke="#333" stroke-width="0.5"></rect><rect x="337" y="60" width="68.41543825990675" class="rect-W2_LbGP" height="8" fill="#62D6F6" stroke="#333" stroke-width="0.5"></rect><rect x="337" y="84" width="60.60433110681208" class="rect-W2_LbGP" height="8" fill="#62D6F6" stroke="#333" stroke-width="0.5"></rect><rect x="337" y="108" width="84.32969993384461" class="rect-W2_LbGP" height="8" fill="#62D6F6" stroke="#333" stroke-width="0.5"></rect><rect x="337" y="132" width="77.59393342208966" class="rect-W2_LbGP" height="8" fill="#62D6F6" stroke="#333" stroke-width="0.5"></rect><rect x="337" y="156" width="45.8105973392299" class="rect-W2_LbGP" height="8" fill="#62D6F6" stroke="#333" stroke-width="0.5"></rect><rect x="337" y="180" width="62.05768254693089" class="rect-W2_LbGP" height="8" fill="#62D6F6" stroke="#333" stroke-width="0.5"></rect><rect x="337" y="204" width="50.957062094699666" class="rect-W2_LbGP" height="8" fill="#62D6F6" stroke="#333" stroke-width="0.5"></rect><rect x="337" y="228" width="52.104201608950746" class="rect-W2_LbGP" height="8" fill="#62D6F6" stroke="#333" stroke-width="0.5"></rect><rect x="337" y="252" width="52.61463013437901" class="rect-W2_LbGP" height="8" fill="#62D6F6" stroke="#333" stroke-width="0.5"></rect><rect x="337" y="276" width="25.60204635102673" class="rect-W2_LbGP" height="8" fill="#62D6F6" stroke="#333" stroke-width="0.5"></rect><rect x="337" y="300" width="31.138110342493746" class="rect-W2_LbGP" height="8" fill="#62D6F6" stroke="#333" stroke-width="0.5"></rect><rect x="337" y="324" width="18.547620367975583" class="rect-W2_LbGP" height="8" fill="#62D6F6" stroke="#333" stroke-width="0.5"></rect><rect x="337" y="348" width="19.593333423912497" class="rect-W2_LbGP" height="8" fill="#62D6F6" stroke="#333" stroke-width="0.5"></rect><rect x="337" y="372" width="15.36214894625482" class="rect-W2_LbGP" height="8" fill="#62D6F6" stroke="#333" stroke-width="0.5"></rect><rect x="337" y="396" width="14.704671655805328" class="rect-W2_LbGP" height="8" fill="#62D6F6" stroke="#333" stroke-width="0.5"></rect><rect x="337" y="420" width="13.105208942852244" class="rect-W2_LbGP" height="8" fill="#62D6F6" stroke="#333" stroke-width="0.5"></rect><rect x="337" y="444" width="12.985834040846555" class="rect-W2_LbGP" height="8" fill="#62D6F6" stroke="#333" stroke-width="0.5"></rect><rect x="337" y="468" width="13.49564349571699" class="rect-W2_LbGP" height="8" fill="#62D6F6" stroke="#333" stroke-width="0.5"></rect><rect x="337" y="492" width="8.164889585067272" class="rect-W2_LbGP" height="8" fill="#62D6F6" stroke="#333" stroke-width="0.5"></rect><rect x="337" y="516" width="8.223498778440273" class="rect-W2_LbGP" height="8" fill="#62D6F6" stroke="#333" stroke-width="0.5"></rect><rect x="337" y="540" width="0.6128571940455458" class="rect-W2_LbGP" height="8" fill="#62D6F6" stroke="#333" stroke-width="0.5"></rect><rect x="337" y="564" width="5.18048701251729" class="rect-W2_LbGP" height="8" fill="#62D6F6" stroke="#333" stroke-width="0.5"></rect><rect x="337" y="588" width="4.318592453862493" class="rect-W2_LbGP" height="8" fill="#62D6F6" stroke="#333" stroke-width="0.5"></rect><rect x="337" y="612" width="5.260107997351781" class="rect-W2_LbGP" height="8" fill="#62D6F6" stroke="#333" stroke-width="0.5"></rect><rect x="337" y="636" width="3.09579661206692" class="rect-W2_LbGP" height="8" fill="#62D6F6" stroke="#333" stroke-width="0.5"></rect><rect x="337" y="660" width="1.3886365102458171" class="rect-W2_LbGP" height="8" fill="#62D6F6" stroke="#333" stroke-width="0.5"></rect><rect x="337" y="684" width="0.8194870571037427" class="rect-W2_LbGP" height="8" fill="#62D6F6" stroke="#333" stroke-width="0.5"></rect><rect x="337" y="708" width="0.9636544498018225" class="rect-W2_LbGP" height="8" fill="#62D6F6" stroke="#333" stroke-width="0.5"></rect><rect x="337" y="732" width="1.01488414935244" class="rect-W2_LbGP" height="8" fill="#62D6F6" stroke="#333" stroke-width="0.5"></rect><rect x="337" y="756" width="0.1510808311147116" class="rect-W2_LbGP" height="8" fill="#62D6F6" stroke="#333" stroke-width="0.5"></rect><rect x="337" y="780" width="0.3594478870210196" class="rect-W2_LbGP" height="8" fill="#62D6F6" stroke="#333" stroke-width="0.5"></rect><rect x="337" y="804" width="0.1486847030483318" class="rect-W2_LbGP" height="8" fill="#62D6F6" stroke="#333" stroke-width="0.5"></rect><rect x="337" y="828" width="0.09317440284394252" class="rect-W2_LbGP" height="8" fill="#62D6F6" stroke="#333" stroke-width="0.5"></rect><rect x="337" y="852" width="0.042983733531116286" class="rect-W2_LbGP" height="8" fill="#62D6F6" stroke="#333" stroke-width="0.5"></rect><rect x="337" y="876" width="0.004720528067423402" class="rect-W2_LbGP" height="8" fill="#62D6F6" stroke="#333" stroke-width="0.5"></rect><rect x="337" y="900" width="0.0014161513394697067" class="rect-W2_LbGP" height="8" fill="#62D6F6" stroke="#333" stroke-width="0.5"></rect><rect x="337" y="924" width="0.00010111320563055415" class="rect-W2_LbGP" height="8" fill="#62D6F6" stroke="#333" stroke-width="0.5"></rect><rect x="337" y="948" width="0.00014161513394128633" class="rect-W2_LbGP" height="8" fill="#62D6F6" stroke="#333" stroke-width="0.5"></rect></g><g><text x="20" y="30" font-family="Arial" font-size="14" style="dominant-baseline: middle;">W2_DSS</text><rect x="83" y="22.5" width="20" height="15" opacity="1" data-text="W2_DSS" fill="#F0B142"></rect><text x="113" y="30" font-family="Arial" font-size="14" style="dominant-baseline: middle;">W2_LbGP</text><rect x="183" y="22.5" width="20" height="15" opacity="1" data-text="W2_LbGP" fill="#62D6F6"></rect></g><text x="451.75" y="1060" font-family="Arial" font-size="14" style="text-anchor: middle;">Mean abundance</text></g><g transform="translate(586.5,0)"><rect x="10" y="10" width="323.5" height="1060" stroke="#AAA" stroke-width="0.5" fill="none"></rect><g><rect x="20" y="64" width="219.5" height="24" stroke="none" fill="#E6E6E6"></rect><rect x="20" y="112" width="219.5" height="24" stroke="none" fill="#E6E6E6"></rect><rect x="20" y="160" width="219.5" height="24" stroke="none" fill="#E6E6E6"></rect><rect x="20" y="208" width="219.5" height="24" stroke="none" fill="#E6E6E6"></rect><rect x="20" y="256" width="219.5" height="24" stroke="none" fill="#E6E6E6"></rect><rect x="20" y="304" width="219.5" height="24" stroke="none" fill="#E6E6E6"></rect><rect x="20" y="352" width="219.5" height="24" stroke="none" fill="#E6E6E6"></rect><rect x="20" y="400" width="219.5" height="24" stroke="none" fill="#E6E6E6"></rect><rect x="20" y="448" width="219.5" height="24" stroke="none" fill="#E6E6E6"></rect><rect x="20" y="496" width="219.5" height="24" stroke="none" fill="#E6E6E6"></rect><rect x="20" y="544" width="219.5" height="24" stroke="none" fill="#E6E6E6"></rect><rect x="20" y="592" width="219.5" height="24" stroke="none" fill="#E6E6E6"></rect><rect x="20" y="640" width="219.5" height="24" stroke="none" fill="#E6E6E6"></rect><rect x="20" y="688" width="219.5" height="24" stroke="none" fill="#E6E6E6"></rect><rect x="20" y="736" width="219.5" height="24" stroke="none" fill="#E6E6E6"></rect><rect x="20" y="784" width="219.5" height="24" stroke="none" fill="#E6E6E6"></rect><rect x="20" y="832" width="219.5" height="24" stroke="none" fill="#E6E6E6"></rect><rect x="20" y="880" width="219.5" height="24" stroke="none" fill="#E6E6E6"></rect><rect x="20" y="928" width="219.5" height="24" stroke="none" fill="#E6E6E6"></rect><rect x="20" y="976" width="219.5" height="24" stroke="none" fill="#E6E6E6"></rect></g><g transform="translate(0,1000)" class="axis_g" fill="none" font-size="10" font-family="sans-serif" text-anchor="middle"><path class="domain" stroke="currentColor" d="M20,0L255.5,0"></path><g class="tick" opacity="1" transform="translate(72.11673219475426,0)"><line stroke="currentColor" y2="6"></line><text fill="currentColor" y="9" dy="0.71em" font-family="Arial" font-size="12">0</text></g><g class="tick" opacity="1" transform="translate(125.33355996076524,0)"><line stroke="currentColor" y2="6"></line><text fill="currentColor" y="9" dy="0.71em" font-family="Arial" font-size="12">10,000</text></g><g class="tick" opacity="1" transform="translate(178.55038772677625,0)"><line stroke="currentColor" y2="6"></line><text fill="currentColor" y="9" dy="0.71em" font-family="Arial" font-size="12">20,000</text></g><g class="tick" opacity="1" transform="translate(231.76721549278724,0)"><line stroke="currentColor" y2="6"></line><text fill="currentColor" y="9" dy="0.71em" font-family="Arial" font-size="12">30,000</text></g></g><g transform="translate(239.5,0)" class="axis_g" fill="none" font-size="10" font-family="sans-serif" text-anchor="start"><path class="domain" stroke="currentColor" d="M0,40L0,1006"></path><g class="tick" opacity="1" transform="translate(0,52.5)"><line stroke="currentColor" x2="6"></line><text fill="currentColor" x="9" dy="0.32em" font-family="Arial" font-size="12">0.04157</text></g><g class="tick" opacity="1" transform="translate(0,76.5)"><line stroke="currentColor" x2="6"></line><text fill="currentColor" x="9" dy="0.32em" font-family="Arial" font-size="12">0.02824</text></g><g class="tick" opacity="1" transform="translate(0,100.5)"><line stroke="currentColor" x2="6"></line><text fill="currentColor" x="9" dy="0.32em" font-family="Arial" font-size="12">0.03739</text></g><g class="tick" opacity="1" transform="translate(0,124.5)"><line stroke="currentColor" x2="6"></line><text fill="currentColor" x="9" dy="0.32em" font-family="Arial" font-size="12">0.04670</text></g><g class="tick" opacity="1" transform="translate(0,148.5)"><line stroke="currentColor" x2="6"></line><text fill="currentColor" x="9" dy="0.32em" font-family="Arial" font-size="12">0.04965</text></g><g class="tick" opacity="1" transform="translate(0,172.5)"><line stroke="currentColor" x2="6"></line><text fill="currentColor" x="9" dy="0.32em" font-family="Arial" font-size="12">0.01571</text></g><g class="tick" opacity="1" transform="translate(0,196.5)"><line stroke="currentColor" x2="6"></line><text fill="currentColor" x="9" dy="0.32em" font-family="Arial" font-size="12">0.01366</text></g><g class="tick" opacity="1" transform="translate(0,220.5)"><line stroke="currentColor" x2="6"></line><text fill="currentColor" x="9" dy="0.32em" font-family="Arial" font-size="12">0.03835</text></g><g class="tick" opacity="1" transform="translate(0,244.5)"><line stroke="currentColor" x2="6"></line><text fill="currentColor" x="9" dy="0.32em" font-family="Arial" font-size="12">0.02061</text></g><g class="tick" opacity="1" transform="translate(0,268.5)"><line stroke="currentColor" x2="6"></line><text fill="currentColor" x="9" dy="0.32em" font-family="Arial" font-size="12">0.03607</text></g><g class="tick" opacity="1" transform="translate(0,292.5)"><line stroke="currentColor" x2="6"></line><text fill="currentColor" x="9" dy="0.32em" font-family="Arial" font-size="12">0.02189</text></g><g class="tick" opacity="1" transform="translate(0,316.5)"><line stroke="currentColor" x2="6"></line><text fill="currentColor" x="9" dy="0.32em" font-family="Arial" font-size="12">0.02604</text></g><g class="tick" opacity="1" transform="translate(0,340.5)"><line stroke="currentColor" x2="6"></line><text fill="currentColor" x="9" dy="0.32em" font-family="Arial" font-size="12">0.01872</text></g><g class="tick" opacity="1" transform="translate(0,364.5)"><line stroke="currentColor" x2="6"></line><text fill="currentColor" x="9" dy="0.32em" font-family="Arial" font-size="12">0.00856</text></g><g class="tick" opacity="1" transform="translate(0,388.5)"><line stroke="currentColor" x2="6"></line><text fill="currentColor" x="9" dy="0.32em" font-family="Arial" font-size="12">0.00798</text></g><g class="tick" opacity="1" transform="translate(0,412.5)"><line stroke="currentColor" x2="6"></line><text fill="currentColor" x="9" dy="0.32em" font-family="Arial" font-size="12">0.02704</text></g><g class="tick" opacity="1" transform="translate(0,436.5)"><line stroke="currentColor" x2="6"></line><text fill="currentColor" x="9" dy="0.32em" font-family="Arial" font-size="12">0.01072</text></g><g class="tick" opacity="1" transform="translate(0,460.5)"><line stroke="currentColor" x2="6"></line><text fill="currentColor" x="9" dy="0.32em" font-family="Arial" font-size="12">0.03879</text></g><g class="tick" opacity="1" transform="translate(0,484.5)"><line stroke="currentColor" x2="6"></line><text fill="currentColor" x="9" dy="0.32em" font-family="Arial" font-size="12">0.01112</text></g><g class="tick" opacity="1" transform="translate(0,508.5)"><line stroke="currentColor" x2="6"></line><text fill="currentColor" x="9" dy="0.32em" font-family="Arial" font-size="12">0.01206</text></g><g class="tick" opacity="1" transform="translate(0,532.5)"><line stroke="currentColor" x2="6"></line><text fill="currentColor" x="9" dy="0.32em" font-family="Arial" font-size="12">0.01199</text></g><g class="tick" opacity="1" transform="translate(0,556.5)"><line stroke="currentColor" x2="6"></line><text fill="currentColor" x="9" dy="0.32em" font-family="Arial" font-size="12">0.00662</text></g><g class="tick" opacity="1" transform="translate(0,580.5)"><line stroke="currentColor" x2="6"></line><text fill="currentColor" x="9" dy="0.32em" font-family="Arial" font-size="12">0.01009</text></g><g class="tick" opacity="1" transform="translate(0,604.5)"><line stroke="currentColor" x2="6"></line><text fill="currentColor" x="9" dy="0.32em" font-family="Arial" font-size="12">0.02374</text></g><g class="tick" opacity="1" transform="translate(0,628.5)"><line stroke="currentColor" x2="6"></line><text fill="currentColor" x="9" dy="0.32em" font-family="Arial" font-size="12">0.02748</text></g><g class="tick" opacity="1" transform="translate(0,652.5)"><line stroke="currentColor" x2="6"></line><text fill="currentColor" x="9" dy="0.32em" font-family="Arial" font-size="12">0.03610</text></g><g class="tick" opacity="1" transform="translate(0,676.5)"><line stroke="currentColor" x2="6"></line><text fill="currentColor" x="9" dy="0.32em" font-family="Arial" font-size="12">0.02653</text></g><g class="tick" opacity="1" transform="translate(0,700.5)"><line stroke="currentColor" x2="6"></line><text fill="currentColor" x="9" dy="0.32em" font-family="Arial" font-size="12">0.01345</text></g><g class="tick" opacity="1" transform="translate(0,724.5)"><line stroke="currentColor" x2="6"></line><text fill="currentColor" x="9" dy="0.32em" font-family="Arial" font-size="12">0.04903</text></g><g class="tick" opacity="1" transform="translate(0,748.5)"><line stroke="currentColor" x2="6"></line><text fill="currentColor" x="9" dy="0.32em" font-family="Arial" font-size="12">0.01373</text></g><g class="tick" opacity="1" transform="translate(0,772.5)"><line stroke="currentColor" x2="6"></line><text fill="currentColor" x="9" dy="0.32em" font-family="Arial" font-size="12">0.01761</text></g><g class="tick" opacity="1" transform="translate(0,796.5)"><line stroke="currentColor" x2="6"></line><text fill="currentColor" x="9" dy="0.32em" font-family="Arial" font-size="12">0.01941</text></g><g class="tick" opacity="1" transform="translate(0,820.5)"><line stroke="currentColor" x2="6"></line><text fill="currentColor" x="9" dy="0.32em" font-family="Arial" font-size="12">0.02679</text></g><g class="tick" opacity="1" transform="translate(0,844.5)"><line stroke="currentColor" x2="6"></line><text fill="currentColor" x="9" dy="0.32em" font-family="Arial" font-size="12">0.03032</text></g><g class="tick" opacity="1" transform="translate(0,868.5)"><line stroke="currentColor" x2="6"></line><text fill="currentColor" x="9" dy="0.32em" font-family="Arial" font-size="12">0.04900</text></g><g class="tick" opacity="1" transform="translate(0,892.5)"><line stroke="currentColor" x2="6"></line><text fill="currentColor" x="9" dy="0.32em" font-family="Arial" font-size="12">0.01144</text></g><g class="tick" opacity="1" transform="translate(0,916.5)"><line stroke="currentColor" x2="6"></line><text fill="currentColor" x="9" dy="0.32em" font-family="Arial" font-size="12">0.01070</text></g><g class="tick" opacity="1" transform="translate(0,940.5)"><line stroke="currentColor" x2="6"></line><text fill="currentColor" x="9" dy="0.32em" font-family="Arial" font-size="12">0.01122</text></g><g class="tick" opacity="1" transform="translate(0,964.5)"><line stroke="currentColor" x2="6"></line><text fill="currentColor" x="9" dy="0.32em" font-family="Arial" font-size="12">0.00853</text></g><g class="tick" opacity="1" transform="translate(0,988.5)"><line stroke="currentColor" x2="6"></line><text fill="currentColor" x="9" dy="0.32em" font-family="Arial" font-size="12">0.03692</text></g></g><line x1="71.61673219475426" y1="45" x2="71.61673219475426" y2="995" stroke-dasharray="10,10" stroke="#333"></line><g><circle cx="154.5648880780921" cy="52" r="5" fill="#F0B142"></circle><circle cx="107.83282169402813" cy="76" r="5" fill="#F0B142"></circle><circle cx="102.2932400439925" cy="100" r="5" fill="#F0B142"></circle><circle cx="118.06408234164032" cy="124" r="5" fill="#F0B142"></circle><circle cx="57.81662176026195" cy="148" r="5" fill="#62D6F6"></circle><circle cx="51.55776661043422" cy="172" r="5" fill="#62D6F6"></circle><circle cx="119.79974651838737" cy="196" r="5" fill="#F0B142"></circle><circle cx="91.25958937153138" cy="220" r="5" fill="#F0B142"></circle><circle cx="120.98067183039807" cy="244" r="5" fill="#F0B142"></circle><circle cx="84.71062144341123" cy="268" r="5" fill="#F0B142"></circle><circle cx="87.18399431603562" cy="292" r="5" fill="#F0B142"></circle><circle cx="86.95678613422518" cy="316" r="5" fill="#F0B142"></circle><circle cx="85.31020497587474" cy="340" r="5" fill="#F0B142"></circle><circle cx="92.07075431911069" cy="364" r="5" fill="#F0B142"></circle><circle cx="84.83909103428988" cy="388" r="5" fill="#F0B142"></circle><circle cx="79.2027497497576" cy="412" r="5" fill="#F0B142"></circle><circle cx="78.8041989041154" cy="436" r="5" fill="#F0B142"></circle><circle cx="74.68185481671088" cy="460" r="5" fill="#F0B142"></circle><circle cx="75.98364725228028" cy="484" r="5" fill="#F0B142"></circle><circle cx="66.43241260528806" cy="508" r="5" fill="#62D6F6"></circle><circle cx="76.96400889511173" cy="532" r="5" fill="#F0B142"></circle><circle cx="88.09941173876624" cy="556" r="5" fill="#F0B142"></circle><circle cx="82.65700951530346" cy="580" r="5" fill="#F0B142"></circle><circle cx="76.16238634561384" cy="604" r="5" fill="#F0B142"></circle><circle cx="78.10542346204222" cy="628" r="5" fill="#F0B142"></circle><circle cx="70.52813639371804" cy="652" r="5" fill="#62D6F6"></circle><circle cx="74.61724204875233" cy="676" r="5" fill="#F0B142"></circle><circle cx="73.79225890837" cy="700" r="5" fill="#F0B142"></circle><circle cx="72.69579961147366" cy="724" r="5" fill="#F0B142"></circle><circle cx="75.00898681690214" cy="748" r="5" fill="#F0B142"></circle><circle cx="72.82271154580363" cy="772" r="5" fill="#F0B142"></circle><circle cx="74.6931309303462" cy="796" r="5" fill="#F0B142"></circle><circle cx="72.93081283932841" cy="820" r="5" fill="#F0B142"></circle><circle cx="71.76213316286024" cy="844" r="5" fill="#F0B142"></circle><circle cx="71.7417781697133" cy="868" r="5" fill="#F0B142"></circle><circle cx="71.69437998120051" cy="892" r="5" fill="#F0B142"></circle><circle cx="71.64622318680792" cy="916" r="5" fill="#F0B142"></circle><circle cx="71.62569036076152" cy="940" r="5" fill="#F0B142"></circle><circle cx="71.61721966089658" cy="964" r="5" fill="#F0B142"></circle><circle cx="71.61658434066779" cy="988" r="5" fill="#62D6F6"></circle></g><g><path d="M75.80098232029772,50L75.80098232029772,54M75.80098232029772,52L233.32879383588676,52M233.32879383588676,50L233.32879383588676,54" stroke="#000"></path><path d="M76.69014068040428,74L76.69014068040428,78M76.69014068040428,76L138.97550270765225,76M138.97550270765225,74L138.97550270765225,78" stroke="#000"></path><path d="M74.20018533374892,98L74.20018533374892,102M74.20018533374892,100L130.38629475423585,100M130.38629475423585,98L130.38629475423585,102" stroke="#000"></path><path d="M72.56608505004144,122L72.56608505004144,126M72.56608505004144,124L163.56207963323897,124M163.56207963323897,122L163.56207963323897,126" stroke="#000"></path><path d="M44.04178864284296,146L44.04178864284296,150M44.04178864284296,148L71.59145487768097,148M71.59145487768097,146L71.59145487768097,150" stroke="#000"></path><path d="M36.17120616411326,170L36.17120616411326,174M36.17120616411326,172L66.94432705675517,172M66.94432705675517,170L66.94432705675517,174" stroke="#000"></path><path d="M86.11099914744797,194L86.11099914744797,198M86.11099914744797,196L153.48849388932695,196M153.48849388932695,194L153.48849388932695,198" stroke="#000"></path><path d="M73.00455463601324,218L73.00455463601324,222M73.00455463601324,220L109.51462410704956,220M109.51462410704956,218L109.51462410704956,222" stroke="#000"></path><path d="M81.66512435252972,242L81.66512435252972,246M81.66512435252972,244L160.29621930826656,244M160.29621930826656,242L160.29621930826656,246" stroke="#000"></path><path d="M72.70450744365267,266L72.70450744365267,270M72.70450744365267,268L96.71673544316982,268M96.71673544316982,266L96.71673544316982,270" stroke="#000"></path><path d="M74.63276451893307,290L74.63276451893307,294M74.63276451893307,292L99.7352241131382,292M99.7352241131382,290L99.7352241131382,294" stroke="#000"></path><path d="M74.18794756523843,314L74.18794756523843,318M74.18794756523843,316L99.72562470321192,316M99.72562470321192,314L99.72562470321192,318" stroke="#000"></path><path d="M74.51573335580494,338L74.51573335580494,342M74.51573335580494,340L96.10467659594455,340M96.10467659594455,338L96.10467659594455,342" stroke="#000"></path><path d="M79.40949720261932,362L79.40949720261932,366M79.40949720261932,364L104.73201143560202,364M104.73201143560202,362L104.73201143560202,366" stroke="#000"></path><path d="M76.6749519628113,386L76.6749519628113,390M76.6749519628113,388L93.00323010576847,388M93.00323010576847,386L93.00323010576847,390" stroke="#000"></path><path d="M72.87972856943553,410L72.87972856943553,414M72.87972856943553,412L85.52577093007966,412M85.52577093007966,410L85.52577093007966,414" stroke="#000"></path><path d="M73.95543095346427,434L73.95543095346427,438M73.95543095346427,436L83.65296685476648,436M83.65296685476648,434L83.65296685476648,438" stroke="#000"></path><path d="M71.81340442537616,458L71.81340442537616,462M71.81340442537616,460L77.55030520804561,460M77.55030520804561,458L77.55030520804561,462" stroke="#000"></path><path d="M72.94339779084171,482L72.94339779084171,486M72.94339779084171,484L79.02389671371883,484M79.02389671371883,482L79.02389671371883,486" stroke="#000"></path><path d="M62.663151109655885,506L62.663151109655885,510M62.663151109655885,508L70.20167410092024,508M70.20167410092024,506L70.20167410092024,510" stroke="#000"></path><path d="M73.31618273492978,530L73.31618273492978,534M73.31618273492978,532L80.61183505529367,532M80.61183505529367,530L80.61183505529367,534" stroke="#000"></path><path d="M77.53462193685986,554L77.53462193685986,558M77.53462193685986,556L98.66420154067266,556M98.66420154067266,554L98.66420154067266,558" stroke="#000"></path><path d="M75.4123281508486,578L75.4123281508486,582M75.4123281508486,580L89.90169087975838,580M89.90169087975838,578L89.90169087975838,582" stroke="#000"></path><path d="M72.37644173875955,602L72.37644173875955,606M72.37644173875955,604L79.94833095246814,604M79.94833095246814,602L79.94833095246814,606" stroke="#000"></path><path d="M72.66379893172214,626L72.66379893172214,630M72.66379893172214,628L83.54704799236234,628M83.54704799236234,626L83.54704799236234,630" stroke="#000"></path><path d="M69.52604856057444,650L69.52604856057444,654M69.52604856057444,652L71.53022422686166,652M71.53022422686166,650L71.53022422686166,654" stroke="#000"></path><path d="M72.09864558874267,674L72.09864558874267,678M72.09864558874267,676L77.13583850876196,676M77.13583850876196,674L77.13583850876196,678" stroke="#000"></path><path d="M72.2656467780129,698L72.2656467780129,702M72.2656467780129,700L75.31887103872714,700M75.31887103872714,698L75.31887103872714,702" stroke="#000"></path><path d="M71.6231124562892,722L71.6231124562892,726M71.6231124562892,724L73.76848676665814,724M73.76848676665814,722L73.76848676665814,726" stroke="#000"></path><path d="M72.6359162093178,746L72.6359162093178,750M72.6359162093178,748L77.38205742448646,748M77.38205742448646,746L77.38205742448646,750" stroke="#000"></path><path d="M71.88257754714294,770L71.88257754714294,774M71.88257754714294,772L73.76284554446428,772M73.76284554446428,770L73.76284554446428,774" stroke="#000"></path><path d="M72.35815596751979,794L72.35815596751979,798M72.35815596751979,796L77.02810589317261,796M77.02810589317261,794L77.02810589317261,798" stroke="#000"></path><path d="M71.83694296231333,818L71.83694296231333,822M71.83694296231333,820L74.02468271634348,820M74.02468271634348,818L74.02468271634348,822" stroke="#000"></path><path d="M71.63367366792323,842L71.63367366792323,846M71.63367366792323,844L71.89059265779724,844M71.89059265779724,842L71.89059265779724,846" stroke="#000"></path><path d="M71.61745184023022,866L71.61745184023022,870M71.61745184023022,868L71.86610449919638,868M71.86610449919638,866L71.86610449919638,870" stroke="#000"></path><path d="M71.63944220360142,890L71.63944220360142,894M71.63944220360142,892L71.7493177587996,892M71.7493177587996,890L71.7493177587996,894" stroke="#000"></path><path d="M71.6269669040751,914L71.6269669040751,918M71.6269669040751,916L71.66547946954074,916M71.66547946954074,914L71.66547946954074,918" stroke="#000"></path><path d="M71.61971756300503,938L71.61971756300503,942M71.61971756300503,940L71.63166315851805,940M71.63166315851805,938L71.63166315851805,942" stroke="#000"></path><path d="M71.61690684922367,962L71.61690684922367,966M71.61690684922367,964L71.61753247256952,964M71.61753247256952,962L71.61753247256952,966" stroke="#000"></path><path d="M71.61644798350989,986L71.61644798350989,990M71.61644798350989,988L71.61672069782568,988M71.61672069782568,986L71.61672069782568,990" stroke="#000"></path></g><text x="151.75" y="30" font-family="Arial" font-size="14" style="dominant-baseline: middle; text-anchor: middle;">95% confidence intervals</text><text x="151.75" y="1060" font-family="Arial" font-size="14" style="text-anchor: middle;">Difference in mean abundance</text><text x="0" y="0" transform="translate(313.5,540) rotate(-90)" font-family="Arial" font-size="14" style="text-anchor: middle;">p-value</text></g></g></svg>